<svg xmlns="http://www.w3.org/2000/svg">
    <defs>
        <g id="eco-transport">
            <path d="M49.43,35.72h-.09l-4.65-9.09a.6.6,0,0,0-.53-.33H40.9a9.61,9.61,0,0,0,2.94-2c3.39-3.39,3.18-9,3.16-9.21a.6.6,0,0,0-.57-.57c-.23,0-5.81-.23-9.21,3.17a9.84,9.84,0,0,0-2.07,3.18,7.61,7.61,0,0,0-1.7-4c-2.16-2.42-5.91-2.49-6.07-2.49a.57.57,0,0,0-.61.54c0,.15-.37,3.89,1.78,6.31h0a8.67,8.67,0,0,0,5.5,2.45V26.3H26.36a.61.61,0,0,0-.51.28L20,35.72H13.5a2.1,2.1,0,0,0-2.1,2.09v2.64a5.92,5.92,0,0,0,5.79,5.91,4.24,4.24,0,0,0,8.25,0H38.56a4.24,4.24,0,0,0,8.24,0h2.63a3.18,3.18,0,0,0,3.17-3.18v-4.3A3.17,3.17,0,0,0,49.43,35.72Zm-1.43,0H35.25V27.5h8.54ZM38.07,18.56c2.42-2.42,6.29-2.77,7.73-2.81,0,1.45-.38,5.31-2.81,7.73-2,2-5,2.6-6.82,2.76L40.37,22a.58.58,0,0,0,0-.84.59.59,0,0,0-.85,0l-4.2,4.2C35.48,23.6,36.05,20.59,38.07,18.56Zm-8.62,1.87A7.4,7.4,0,0,1,28,15.62a7.47,7.47,0,0,1,4.6,2.05A6.71,6.71,0,0,1,34,21.53l-2.2-2.48A.6.6,0,0,0,31,19a.59.59,0,0,0-.05.84l2.21,2.48a6.8,6.8,0,0,1-3.67-1.9ZM26.68,27.5h7.37v8.22H21.43ZM21.32,48.42a3.06,3.06,0,1,1,3.05-3.05A3.06,3.06,0,0,1,21.32,48.42Zm21.36,0a3.06,3.06,0,1,1,3.06-3.05A3.06,3.06,0,0,1,42.68,48.42Zm8.72-5.23a2,2,0,0,1-2,2H46.92a4.24,4.24,0,0,0-8.47,0H25.55a4.23,4.23,0,0,0-8.46,0,4.7,4.7,0,0,1-4.49-4.69V37.81a.89.89,0,0,1,.9-.89H49.43a2,2,0,0,1,2,2Z"/>
            <path d="M32,60.6A28.6,28.6,0,1,1,60.6,32,28.63,28.63,0,0,1,32,60.6Zm0-56A27.4,27.4,0,1,0,59.4,32,27.43,27.43,0,0,0,32,4.6Z"/>
        </g>
        <g id="eco-house">
            <path d="M51.52,31.64h0l-9.23-9.08a.74.74,0,0,0-.42-.17H22.13a.66.66,0,0,0-.42.17L19,25.27v-1.6a.6.6,0,0,0-.6-.6H14.9a.6.6,0,0,0-.61.6v6.19l-1.81,1.78a.6.6,0,0,0-.18.43V48.22a.6.6,0,0,0,.6.6H51.1a.6.6,0,0,0,.6-.6V32.07A.6.6,0,0,0,51.52,31.64ZM47,31.47l-2.54-2.3H47.3l2.33,2.3Zm-4.71,0-2.54-2.3h2.91l2.55,2.3Zm-4.71,0L35,29.17H38l2.55,2.3Zm-6,0-2.33-2.3h4l2.55,2.3Zm-4.56-7.88,1.76,1.59H25.22L23.6,23.59Zm4.71,0,1.77,1.59H30.61l-1.77-1.59Zm4.71,0,1.77,1.59H35.32l-1.77-1.59Zm5.15,0,1.62,1.59H40l-1.77-1.59Zm-5,2.79h2.92L41.34,28H38.42Zm0,1.59H33.71l-1.77-1.59h2.92Zm4.73-1.59h3.1L46.08,28H43.13Zm-11.21,0L31.92,28H28.06l-1.62-1.59ZM15.5,24.27h2.26v2.18L15.5,28.68Zm-2,8.05,8.63-8.49,8.64,8.49v15.3H25.68v-8a.6.6,0,0,0-.6-.6H19.19a.6.6,0,0,0-.6.6v8H13.5Zm6.29,15.3V40.2h4.69v7.42Zm12.18,0V32.67H50.5V47.62Z"/>
            <path d="M40.54,15.5l1.79.73a3.39,3.39,0,0,0,0,1.52l-1.78.75a.6.6,0,0,0,.24,1.15.64.64,0,0,0,.23,0l1.77-.75a3.59,3.59,0,0,0,1.09,1.07l-.73,1.78a.61.61,0,0,0,.33.79.62.62,0,0,0,.23,0,.59.59,0,0,0,.55-.37L45,20.37a3.65,3.65,0,0,0,.74.09,3.47,3.47,0,0,0,.78-.1l.75,1.78a.62.62,0,0,0,.78.32.6.6,0,0,0,.32-.79l-.75-1.78a3.45,3.45,0,0,0,1.07-1.08l1.79.73a.57.57,0,0,0,.22,0,.6.6,0,0,0,.23-1.15l-1.79-.73a3.39,3.39,0,0,0,0-1.52l1.78-.75a.6.6,0,1,0-.47-1.1l-1.77.75A3.45,3.45,0,0,0,47.59,14l.72-1.78a.6.6,0,1,0-1.11-.46l-.73,1.79a3.39,3.39,0,0,0-1.52,0l-.74-1.78a.61.61,0,0,0-.79-.32.6.6,0,0,0-.32.79L43.85,14a3.48,3.48,0,0,0-1.07,1.09L41,14.39a.6.6,0,0,0-.46,1.11Zm3.07.6a2.27,2.27,0,0,1,1.24-1.25,2.25,2.25,0,0,1,.89-.18,2.35,2.35,0,0,1,.86.17,2.3,2.3,0,1,1-3,3A2.33,2.33,0,0,1,43.61,16.1Z"/>
            <path d="M32,60.6A28.6,28.6,0,1,1,60.6,32,28.63,28.63,0,0,1,32,60.6Zm0-56A27.4,27.4,0,1,0,59.4,32,27.43,27.43,0,0,0,32,4.6Z"/>
        </g>
        <g id="pack-light">
            <path d="M32,18.3A13.7,13.7,0,1,0,45.7,32,13.72,13.72,0,0,0,32,18.3Zm0,26.2A12.5,12.5,0,1,1,44.5,32,12.52,12.52,0,0,1,32,44.5Z"/>
            <path d="M52,28.55H48a16.28,16.28,0,0,0-2.25-5.43l2.82-2.82a.59.59,0,0,0,0-.85l-4-4a.59.59,0,0,0-.85,0l-2.82,2.82A16.09,16.09,0,0,0,35.45,16V12a.6.6,0,0,0-.6-.6h-5.7a.6.6,0,0,0-.6.6v4a16.09,16.09,0,0,0-5.43,2.24L20.3,15.42a.59.59,0,0,0-.85,0l-4,4a.59.59,0,0,0,0,.85l2.82,2.82A16.28,16.28,0,0,0,16,28.55H12a.6.6,0,0,0-.6.6v5.7a.6.6,0,0,0,.6.6h4a16.06,16.06,0,0,0,2.24,5.43L15.42,43.7a.59.59,0,0,0,0,.85l4,4a.59.59,0,0,0,.85,0l2.82-2.82A16.06,16.06,0,0,0,28.55,48v4a.6.6,0,0,0,.6.6h5.7a.6.6,0,0,0,.6-.6V48a16.06,16.06,0,0,0,5.43-2.24l2.82,2.82a.59.59,0,0,0,.85,0l4-4a.59.59,0,0,0,0-.85l-2.82-2.82A16.06,16.06,0,0,0,48,35.45h4a.6.6,0,0,0,.6-.6v-5.7A.6.6,0,0,0,52,28.55Zm-.6,5.7H47.51a.6.6,0,0,0-.59.49,14.94,14.94,0,0,1-2.39,5.82.6.6,0,0,0,0,.77l.08.08,2.72,2.72-3.18,3.18-2.75-2.75-.06-.05a.6.6,0,0,0-.79,0,14.93,14.93,0,0,1-5.79,2.37.6.6,0,0,0-.49.59V51.4h-4.5V47.51a.6.6,0,0,0-.49-.59,14.94,14.94,0,0,1-5.82-2.39.6.6,0,0,0-.77,0l-.08.08-2.72,2.72-3.18-3.18,2.75-2.75,0-.06a.6.6,0,0,0,0-.79,14.93,14.93,0,0,1-2.37-5.79.6.6,0,0,0-.59-.49H12.6v-4.5h3.89a.6.6,0,0,0,.6-.58,15,15,0,0,1,2.36-5.7.61.61,0,0,0,0-.79l-.08-.09-2.72-2.72,3.18-3.18,2.75,2.75.06,0a.6.6,0,0,0,.79,0,14.89,14.89,0,0,1,5.79-2.37.6.6,0,0,0,.49-.59V12.6h4.5v3.89a.6.6,0,0,0,.49.59,15.12,15.12,0,0,1,5.82,2.39.6.6,0,0,0,.77,0l.08-.08,2.72-2.72,3.18,3.18-2.75,2.75-.05.06a.6.6,0,0,0,0,.79,15,15,0,0,1,2.36,5.7.6.6,0,0,0,.6.58H51.4Z"/>
            <path d="M39.92,25.5c-.22,0-5.28-.2-8.36,2.88a9.6,9.6,0,0,0-2.35,4.22,5.56,5.56,0,0,0-1-1.57c-2-2.2-5.37-2.27-5.52-2.27a.56.56,0,0,0-.6.54c0,.14-.35,3.54,1.62,5.74h0a6.62,6.62,0,0,0,3,1.83,6.07,6.07,0,0,0-.75.61.6.6,0,1,0,.85.85,3.54,3.54,0,0,1,4.91,0,.59.59,0,0,0,.43.17.58.58,0,0,0,.42-.17.59.59,0,0,0,0-.85,3.72,3.72,0,0,0-.49-.4,10.3,10.3,0,0,0,5.52-2.65c3.08-3.08,2.89-8.14,2.88-8.36A.61.61,0,0,0,39.92,25.5Zm-15.3,8.74A6.61,6.61,0,0,1,23.28,30a6.61,6.61,0,0,1,4.06,1.82,5.93,5.93,0,0,1,1.28,3.27L26.75,33a.59.59,0,0,0-.84,0,.6.6,0,0,0-.05.85l1.87,2.1a5.89,5.89,0,0,1-3.11-1.66Zm12.14-.66a9.88,9.88,0,0,1-6,2.45l3.68-3.68a.58.58,0,0,0,0-.84.59.59,0,0,0-.85,0L30,35.19a9.91,9.91,0,0,1,2.46-6c2.13-2.14,5.53-2.47,6.87-2.52C39.24,28.05,38.9,31.44,36.76,33.58Z"/>
            <path d="M32,60.6A28.6,28.6,0,1,1,60.6,32,28.63,28.63,0,0,1,32,60.6Zm0-56A27.4,27.4,0,1,0,59.4,32,27.43,27.43,0,0,0,32,4.6Z"/>
        </g>
        <g id="respect-environment">
            <path d="M35.82,24.75a6.48,6.48,0,0,0,2.32-1.46c2.28-2.28,2.14-6,2.13-6.17a.61.61,0,0,0-.57-.58c-.16,0-3.89-.15-6.17,2.13a5.63,5.63,0,0,0-.79,1c0-.42.06-3.94-2.13-6.13s-6-2.13-6.18-2.13a.61.61,0,0,0-.57.58c0,.15-.15,3.89,2.13,6.17a8.47,8.47,0,0,0,5.41,2.11v4a14.15,14.15,0,1,0,4.42.5ZM32,25.42a12.9,12.9,0,0,1,8.22,2.94,22.37,22.37,0,0,0-1.13,4c-.32,1.64-.53,2.51-1.22,2.8-1.39.58-4-1.39-5.9-3.47a11.26,11.26,0,0,1-2.25-4.16c-.22-.62-.44-1.21-.71-1.79A12.81,12.81,0,0,1,32,25.42Zm2.38-5.9a7.44,7.44,0,0,1,4.68-1.77,7.37,7.37,0,0,1-1.76,4.69,6.7,6.7,0,0,1-3.75,1.67l2.33-2.32a.61.61,0,0,0,0-.85.59.59,0,0,0-.85,0L32.7,23.26A6.72,6.72,0,0,1,34.38,19.52Zm-9.31-6.91a7.44,7.44,0,0,1,4.69,1.77,6.78,6.78,0,0,1,1.67,3.74L29.1,15.8a.58.58,0,0,0-.84,0,.59.59,0,0,0,0,.85L30.58,19a6.65,6.65,0,0,1-3.74-1.67A7.44,7.44,0,0,1,25.07,12.61ZM19,38.41a13,13,0,0,1,1.61-6.26,6.42,6.42,0,0,1,2.17,1.32,6.27,6.27,0,0,1,1.71,3.31C25,39.55,27,40.85,29.71,40a3.82,3.82,0,0,1,2.76.07A5.32,5.32,0,0,1,35,43.35c.46,2-.28,2.22-2.55,2a11.3,11.3,0,0,0-6.08.7,9.47,9.47,0,0,0-2.91,2.17A12.94,12.94,0,0,1,19,38.41Zm13,13a12.85,12.85,0,0,1-7.59-2.47,8.35,8.35,0,0,1,2.48-1.83,10.22,10.22,0,0,1,5.46-.6c1.54.14,2.88.26,3.6-.82,1.19-2.21-.61-5.44-3-6.66s-4,.7-6-.23c-.85-.47-1-1.25-1.33-2.32a7.46,7.46,0,0,0-2.05-3.87,7.3,7.3,0,0,0-2.35-1.49,13,13,0,0,1,6.55-5A14.67,14.67,0,0,1,28.59,28a12.45,12.45,0,0,0,2.49,4.56c2.24,2.64,8.3,7.37,9.19.11a22.17,22.17,0,0,1,.9-3.42A13,13,0,0,1,32,51.4Z"/>
            <path d="M16.44,38.41a15.49,15.49,0,0,1,4.08-10.5.6.6,0,0,0,0-.85.59.59,0,0,0-.84,0,16.75,16.75,0,0,0,0,22.63.59.59,0,0,0,.44.19.59.59,0,0,0,.44-1A15.47,15.47,0,0,1,16.44,38.41Z"/>
            <path d="M44.36,27.09a.59.59,0,0,0-.84,0,.6.6,0,0,0,0,.85,15.55,15.55,0,0,1,0,21,.59.59,0,0,0,.44,1,.59.59,0,0,0,.44-.19,16.75,16.75,0,0,0,0-22.63Z"/>
            <path d="M32,60.6A28.6,28.6,0,1,1,60.6,32,28.63,28.63,0,0,1,32,60.6Zm0-56A27.4,27.4,0,1,0,59.4,32,27.43,27.43,0,0,0,32,4.6Z"/>
        </g>


    </defs>


</svg>
