<?xml version="1.0" encoding="utf-8"?>
<!-- Generator: Adobe Illustrator 27.0.0, SVG Export Plug-In . SVG Version: 6.00 Build 0)  -->
<svg version="1.1" id="Layer_1" xmlns="http://www.w3.org/2000/svg" xmlns:xlink="http://www.w3.org/1999/xlink" x="0px" y="0px"
	 viewBox="0 0 283.5 283.5" style="enable-background:new 0 0 283.5 283.5;" xml:space="preserve">
<style type="text/css">
	.st0{display:none;fill:#F0E7E2;}
	.st1{fill:#F0E7E2;}
</style>
<rect class="st0" width="283.5" height="283.5"/>
<g>
	<path class="st1" d="M139.9,214.4c-11.5,0-22.3-2.9-32-8.6c-9.7-5.7-17.5-13.5-23.2-23.2c-5.7-9.7-8.6-20.5-8.6-32
		c0-8.6,1.7-17,5.1-24.8c3.3-7.8,7.9-14.7,13.6-20.3c5.7-5.6,12.5-10.2,20.3-13.6c7.8-3.4,16.2-5.1,24.8-5.1
		c12.1,0,23.3,3.2,33.4,9.4c10,6.2,17.9,14.6,23.3,25l1.3,2.5l-9.8,5.2l-91.7,48.8c4,8.6,9.7,15.6,17,21c7.9,5.8,16.9,8.7,26.6,8.7
		c9,0,17.2-2.5,24.6-7.5c7.4-5,13.2-11.9,17.4-20.5c4.2-8.7,6.3-18.3,6.3-28.8v-2.8h15.5v2.8c0,8.6-1.7,17-5.1,24.8
		c-3.3,7.8-7.9,14.7-13.6,20.3c-5.7,5.7-12.5,10.3-20.3,13.6C156.9,212.7,148.6,214.4,139.9,214.4z M139.9,93.8
		c-9,0-17.4,2.5-24.9,7.5c-7.6,5-13.6,12-17.9,20.6c-4.4,8.7-6.6,18.3-6.6,28.7c0,7.2,1.1,14.1,3.3,20.6l88.9-47.3
		c-3.8-8.7-9.4-15.9-16.5-21.3C158.6,96.7,149.7,93.8,139.9,93.8z"/>
	<path class="st1" d="M141.5,248c-15.3,0-29.6-3.2-42.6-9.4c-11.4-5.5-20.9-12.8-28.1-21.8l-0.6-0.7l8.1-7.8l0.7,1.2
		c5.6,10,13.8,18.3,24.2,24.6c11.4,6.9,24.3,10.4,38.3,10.4c12.9,0,24.9-3,35.4-8.9c10.6-5.9,18.9-14.1,24.8-24.2l1-1.7l8.4,8.2
		l-0.6,0.7c-2.7,3.2-5.8,6.2-9.1,9c-7.5,6.2-16.6,11.2-27,14.9C164,246.2,153,248,141.5,248z"/>
	<path class="st1" d="M203.2,66.1c-11.5,13.6-26,9.3-26,9.3s-7.4-13.9,3.6-25.3c12.7-13.2,32.3-14.7,32.3-14.7
		S214.5,52.8,203.2,66.1z"/>
</g>
</svg>
